<?xml version="1.0" standalone="no"?>
<!DOCTYPE svg PUBLIC "-//W3C//DTD SVG 20010904//EN"
 "http://www.w3.org/TR/2001/REC-SVG-20010904/DTD/svg10.dtd">
<svg version="1.0" xmlns="http://www.w3.org/2000/svg"
 width="411.000000pt" height="411.000000pt" viewBox="0 0 411.000000 411.000000"
 preserveAspectRatio="xMidYMid meet">
<metadata>
Created by potrace 1.11, written by Peter Selinger 2001-2013
</metadata>
<g transform="translate(0.000000,411.000000) scale(0.100000,-0.100000)"
fill="#000000" stroke="none">
<path d="M1988 3824 c-2 -2 -22 -6 -45 -8 -87 -11 -189 -64 -259 -134 l-41
-41 -99 20 c-208 43 -367 8 -454 -102 -36 -46 -69 -122 -73 -169 -1 -20 -5
-21 -42 -15 -84 14 -239 15 -285 1 -82 -25 -139 -57 -189 -108 -101 -102 -148
-264 -106 -365 8 -20 14 -37 13 -38 -2 -1 -25 -15 -51 -30 -62 -36 -153 -118
-184 -168 -63 -100 -63 -212 1 -311 86 -135 262 -212 402 -177 46 12 48 12 83
-22 90 -85 176 -118 316 -123 109 -4 190 12 260 49 58 31 128 106 144 153 l13
41 82 6 c72 6 151 22 197 41 9 4 23 1 30 -6 53 -52 176 -149 207 -164 110 -52
222 -18 416 126 69 50 69 50 90 31 88 -79 206 -106 301 -67 29 12 31 12 65
-36 158 -220 502 -208 626 22 10 19 20 37 21 39 1 2 28 5 60 8 283 20 507 186
505 374 0 72 -29 138 -82 189 -44 42 -145 95 -199 105 -48 8 -47 8 -46 67 7
262 -264 443 -591 396 l-51 -8 -22 60 c-41 112 -161 211 -290 239 -68 15 -178
6 -249 -19 l-64 -22 -15 21 c-37 53 -104 100 -178 126 -43 14 -207 29 -217 19z"/>
<path d="M1582 2108 c-1 -119 -5 -112 67 -109 19 0 35 2 37 3 3 4 6 105 5 169
l-1 46 -54 -1 -53 -1 -1 -107z"/>
<path d="M2574 2165 c-3 -7 -4 -34 -2 -60 3 -48 3 -48 40 -51 21 -2 40 2 45 9
8 14 12 106 3 108 -33 8 -83 4 -86 -6z"/>
<path d="M1434 2146 c-3 -7 -4 -53 -2 -102 l3 -89 30 0 30 0 0 94 0 95 -28 7
c-19 5 -30 4 -33 -5z"/>
<path d="M2729 2152 l-26 -3 1 -182 1 -182 45 -1 45 0 0 183 c0 101 -2 183 -5
184 -28 4 -39 4 -61 1z"/>
<path d="M2292 1988 l3 -152 40 -1 c22 0 45 3 50 6 6 5 9 64 7 153 l-3 146
-50 0 -50 0 3 -152z"/>
<path d="M2453 2005 l1 -115 28 0 28 0 0 115 0 115 -29 0 -28 0 0 -115z"/>
<path d="M1730 1968 c0 -127 0 -128 23 -128 22 0 23 1 21 118 -1 147 0 141
-24 139 -19 -1 -20 -8 -20 -129z"/>
<path d="M1819 2052 c-1 -58 -1 -231 0 -254 1 -14 12 -16 74 -15 l72 2 5 110
c3 61 3 131 2 157 l-4 47 -74 0 -74 0 -1 -47z"/>
<path d="M2038 2098 c-4 -8 -4 -398 1 -399 3 -1 18 -2 34 -3 l27 -2 0 203 0
203 -30 0 c-16 0 -31 -1 -32 -2z"/>
<path d="M2189 2098 c-1 -2 -3 -85 -3 -185 l-2 -183 33 0 33 0 0 185 0 185
-30 0 c-16 0 -31 -1 -31 -2z"/>
<path d="M2842 2071 c-5 -3 -8 -59 -8 -123 l1 -118 37 0 c23 0 38 5 39 13 4
49 1 218 -4 223 -8 8 -54 12 -65 5z"/>
<path d="M1248 2048 c-10 -27 -3 -271 8 -275 7 -2 10 39 10 136 -1 129 -6 171
-18 139z"/>
<path d="M1315 2040 c-2 -3 -3 -127 -3 -276 l0 -271 34 0 34 0 0 277 0 276
-31 -1 c-17 0 -32 -2 -34 -5z"/>
<path d="M2951 1889 c0 -71 3 -129 7 -130 4 0 15 -2 25 -4 23 -4 26 16 24 150
l-2 110 -27 1 -28 1 1 -128z"/>
<path d="M3130 1934 c0 -76 2 -85 18 -82 14 3 17 15 18 86 0 73 -2 82 -18 82
-16 0 -18 -10 -18 -86z"/>
<path d="M2593 1827 l-1 -184 39 -1 39 -2 0 185 0 185 -38 0 -39 0 0 -183z"/>
<path d="M957 1989 c-12 -7 -15 -43 -8 -90 1 -9 45 -6 52 4 4 6 5 63 0 88 -1
8 -27 7 -44 -2z"/>
<path d="M1047 1993 c-3 -5 -4 -28 -3 -52 1 -34 5 -45 19 -47 9 -1 17 1 18 4
1 4 2 28 3 55 2 39 0 47 -15 47 -10 0 -20 -3 -22 -7z"/>
<path d="M1130 1865 l0 -115 50 0 50 0 0 115 0 115 -50 0 -50 0 0 -115z"/>
<path d="M3049 1968 c-5 -11 -3 -141 1 -149 4 -5 14 -7 22 -4 13 5 16 21 14
81 -1 63 -4 74 -18 74 -10 0 -19 -1 -19 -2z"/>
<path d="M1521 1910 c-5 -4 -7 -354 -2 -381 0 -4 35 -6 76 -6 l75 1 0 196 0
196 -71 0 c-39 -1 -74 -3 -78 -6z"/>
<path d="M1002 1858 c-5 -7 -9 -46 -8 -87 1 -70 3 -74 24 -76 22 -2 23 0 20
83 -3 84 -13 107 -36 80z"/>
<path d="M1420 1720 l0 -140 39 0 39 0 -1 140 0 140 -39 0 -38 0 0 -140z"/>
<path d="M1087 1833 c-3 -7 -2 -112 2 -136 0 -5 6 -5 11 -2 13 8 13 145 1 145
-6 0 -11 -3 -14 -7z"/>
<path d="M1735 1798 c-3 -7 -4 -157 -2 -332 l2 -319 33 -1 32 -1 0 333 -1 332
-30 0 c-16 0 -32 -6 -34 -12z"/>
<path d="M3070 1775 c0 -21 5 -25 30 -25 25 0 30 4 30 25 0 21 -5 25 -30 25
-25 0 -30 -4 -30 -25z"/>
<path d="M2422 1762 c-8 -2 -12 -46 -12 -138 l0 -134 53 3 52 2 3 135 3 135
-44 1 c-24 0 -49 -2 -55 -4z"/>
<path d="M2844 1763 c-7 -5 -11 -40 -10 -93 l1 -84 37 -1 37 0 -2 90 c-2 88
-3 90 -27 93 -14 1 -30 -1 -36 -5z"/>
<path d="M2713 1627 c0 -111 0 -113 23 -115 13 -1 24 2 25 6 1 10 1 194 0 210
-1 6 -12 12 -24 12 -24 0 -24 -1 -24 -113z"/>
<path d="M1149 1726 c-1 -1 -2 -34 -3 -73 -1 -64 1 -73 16 -73 16 0 18 10 18
73 0 59 -3 74 -15 74 -8 0 -16 -1 -16 -1z"/>
<path d="M1205 1716 c-6 -18 -2 -156 4 -157 74 -11 73 -13 73 81 0 94 1 90
-38 88 -20 -1 -37 -6 -39 -12z"/>
<path d="M3064 1640 c0 -44 4 -80 8 -80 5 0 11 -1 15 -2 5 -2 8 34 8 80 1 70
-2 82 -16 82 -14 0 -16 -11 -15 -80z"/>
<path d="M2979 1701 c-25 -6 -25 -8 -28 -102 l-2 -96 28 3 c15 1 31 2 36 3 4
1 7 43 7 95 0 52 -3 97 -7 99 -5 2 -20 1 -34 -2z"/>
<path d="M3119 1698 c-1 -2 -2 -34 -3 -71 -1 -56 1 -67 14 -65 20 4 24 138 3
138 -7 0 -14 -1 -14 -2z"/>
<path d="M1893 1559 c0 -102 3 -119 16 -120 9 0 26 -2 38 -3 43 -5 48 7 48
127 l0 114 -51 1 -51 0 0 -119z"/>
<path d="M2229 1656 c-1 -24 -1 -255 0 -273 1 -7 20 -11 55 -10 l55 1 -1 152
-1 152 -54 0 c-47 0 -53 -3 -54 -22z"/>
<path d="M1064 1657 c-3 -8 -4 -34 -2 -58 2 -36 7 -45 24 -47 18 -3 20 2 20
55 -1 47 -4 58 -19 61 -9 2 -20 -3 -23 -11z"/>
<path d="M2056 1640 c-1 -3 -2 -93 -2 -200 l1 -195 50 0 50 0 0 200 0 200 -48
0 c-27 0 -50 -2 -51 -5z"/>
<path d="M2583 1613 c-9 -3 -13 -36 -13 -117 l0 -112 40 -1 40 -1 0 114 c0 63
-3 114 -7 115 -5 0 -17 2 -28 4 -11 1 -26 1 -32 -2z"/>
<path d="M1130 1496 c0 -52 3 -62 18 -63 15 -1 18 7 17 59 -1 50 -4 62 -18 64
-14 2 -17 -7 -17 -60z"/>
<path d="M2800 1515 c0 -40 1 -41 35 -41 34 0 35 1 35 42 0 41 0 42 -35 41
-34 -1 -35 -2 -35 -42z"/>
<path d="M1399 1527 c-1 -7 -2 -72 -3 -144 -1 -120 1 -133 17 -133 19 0 18 -8
20 167 2 99 0 112 -15 117 -10 2 -19 -1 -19 -7z"/>
<path d="M2895 1450 c0 -58 4 -93 13 -102 9 -10 12 8 12 90 0 76 -3 102 -13
102 -9 0 -12 -24 -12 -90z"/>
<path d="M1220 1425 c0 -93 1 -95 23 -95 23 0 23 2 24 95 0 93 -1 95 -24 95
-23 0 -23 -2 -23 -95z"/>
<path d="M3083 1437 c0 -82 5 -92 32 -75 6 3 10 39 10 80 0 66 -2 73 -21 76
-20 3 -21 -1 -21 -81z"/>
<path d="M1619 1481 c-4 -23 -5 -78 -1 -88 2 -8 21 -13 44 -13 l39 0 -3 52 -3
53 -37 1 c-21 1 -38 -1 -39 -5z"/>
<path d="M2678 1473 c-2 -4 -4 -32 -3 -62 0 -54 0 -54 32 -56 37 -2 40 3 38
70 -1 48 -2 50 -32 53 -17 2 -33 -1 -35 -5z"/>
<path d="M1297 1453 c-2 -5 -3 -66 -3 -138 l1 -130 28 1 c15 1 30 2 35 3 5 1
8 205 3 256 -1 12 -58 19 -64 8z"/>
<path d="M1483 1452 l-33 -3 3 -157 2 -156 55 -2 c30 0 60 3 65 7 11 8 15 293
4 303 -8 8 -57 12 -96 8z"/>
<path d="M2779 1457 c-1 -1 -3 -52 -4 -112 l-2 -111 28 -2 29 -2 0 110 c0 60
-3 110 -7 111 -5 0 -16 2 -25 4 -10 2 -19 3 -19 2z"/>
<path d="M2983 1443 c-9 -3 -13 -33 -13 -104 l0 -99 39 0 38 0 1 100 c1 55 -1
101 -6 101 -26 5 -49 5 -59 2z"/>
<path d="M2400 1365 c0 -42 4 -76 10 -76 46 -6 45 -7 46 74 l0 77 -28 0 -28 0
0 -75z"/>
<path d="M2488 1413 c-2 -4 -4 -78 -4 -163 l1 -154 32 -2 c17 -1 33 3 35 10 2
6 3 79 3 161 l-1 150 -31 3 c-17 2 -33 -1 -35 -5z"/>
<path d="M2854 1340 c0 -47 3 -71 12 -74 9 -4 13 14 13 70 0 52 -3 74 -12 74
-9 0 -13 -21 -13 -70z"/>
<path d="M1862 1181 l3 -195 48 -1 47 -1 0 196 0 197 -50 -1 -50 0 2 -195z"/>
<path d="M1641 1340 c-4 -3 -7 -99 -7 -215 l1 -210 28 -3 27 -3 1 125 c0 69 0
155 0 191 0 123 1 121 -21 121 -12 0 -24 -3 -29 -6z"/>
<path d="M2595 1248 c-1 -95 6 -124 27 -112 4 3 8 52 8 110 0 92 -2 104 -18
104 -15 0 -17 -12 -17 -102z"/>
<path d="M2222 1316 c-5 -6 -8 -83 -8 -171 l1 -160 40 0 40 0 0 168 c0 107 -3
167 -10 168 -5 0 -20 2 -33 3 -12 2 -26 -2 -30 -8z"/>
<path d="M2710 1236 c0 -84 2 -94 17 -92 15 2 18 14 18 77 1 89 -3 109 -21
109 -11 0 -14 -21 -14 -94z"/>
<path d="M2651 1174 c0 -121 2 -135 17 -132 15 3 17 20 18 134 2 121 0 130
-17 131 -18 2 -19 -7 -18 -133z"/>
<path d="M2878 1243 c-14 -4 -16 -19 -16 -114 l1 -109 27 0 27 0 0 110 c0 110
-4 120 -39 113z"/>
<path d="M1397 1201 c-2 -3 -3 -44 -2 -90 0 -72 2 -84 18 -87 12 -2 17 5 18
24 1 31 1 132 0 148 -1 11 -30 15 -34 5z"/>
<path d="M2343 1201 c-5 -3 -9 -94 -9 -211 l1 -205 28 -3 27 -3 -2 212 c-3
186 -5 212 -19 214 -9 2 -21 0 -26 -4z"/>
<path d="M2033 1008 c0 -126 4 -188 11 -191 6 -2 40 -3 76 -3 l65 1 2 170 c1
94 0 179 -2 190 -4 18 -12 20 -78 20 l-73 1 -1 -188z"/>
<path d="M2787 1192 c-3 -4 -5 -21 -5 -38 -1 -31 1 -32 49 -25 3 1 5 11 3 24
-1 12 -3 27 -3 32 -1 12 -38 18 -44 7z"/>
<path d="M2410 1046 l0 -115 29 1 28 1 0 113 0 114 -29 0 -28 0 0 -114z"/>
<path d="M2723 1061 c2 -49 5 -56 24 -59 20 -3 21 1 20 55 -2 52 -4 58 -24 59
-19 1 -21 -3 -20 -55z"/>
<path d="M1557 1096 c-10 -29 -7 -120 4 -127 25 -15 34 2 33 64 -1 34 -3 65
-3 68 -2 10 -30 6 -34 -5z"/>
<path d="M1779 1083 c-1 -32 -1 -110 0 -134 1 -10 9 -16 24 -15 21 1 22 6 25
89 l3 87 -26 0 c-20 0 -25 -5 -26 -27z"/>
<path d="M1469 1093 c-1 -5 -2 -43 -3 -86 -1 -63 2 -77 14 -77 13 0 16 15 16
85 1 65 -2 85 -13 85 -7 0 -14 -3 -14 -7z"/>
<path d="M1706 1082 c-3 -5 -4 -72 -4 -150 2 -128 4 -142 19 -142 16 0 18 13
17 150 -1 113 -5 150 -14 150 -7 0 -15 -4 -18 -8z"/>
<path d="M2582 1081 c-8 -4 -11 -37 -11 -94 1 -84 1 -87 24 -87 27 0 32 24 25
120 -5 63 -13 77 -38 61z"/>
<path d="M1518 1034 c-9 -17 -3 -224 7 -227 10 -2 14 208 4 224 -3 6 -9 7 -11
3z"/>
<path d="M1942 961 c-10 -6 -14 -39 -14 -122 -1 -105 1 -114 18 -114 17 0 19
10 19 107 1 119 -3 141 -23 129z"/>
<path d="M1874 952 c-17 -11 -15 -102 2 -102 15 0 15 0 18 47 2 41 -6 64 -20
55z"/>
<path d="M1576 943 c-3 -4 -6 -21 -6 -40 0 -26 4 -33 20 -33 16 0 20 7 20 34
0 31 -19 53 -34 39z"/>
<path d="M2210 879 c0 -67 1 -70 23 -67 20 3 22 8 22 71 0 63 -1 67 -22 67
-22 0 -23 -4 -23 -71z"/>
<path d="M2284 833 c1 -102 3 -118 18 -121 15 -3 16 9 15 117 -1 104 -3 121
-17 121 -14 0 -16 -15 -16 -117z"/>
<path d="M1762 865 c-1 -51 -1 -52 27 -53 29 -1 29 0 28 51 -2 48 -4 52 -27
53 -24 1 -26 -2 -28 -51z"/>
<path d="M1993 734 c1 -51 4 -64 17 -64 13 0 16 13 17 63 1 54 -1 63 -17 64
-16 1 -18 -6 -17 -63z"/>
<path d="M2060 739 c0 -42 4 -59 12 -57 10 4 13 34 9 101 -1 9 -5 17 -11 17
-6 0 -10 -27 -10 -61z"/>
<path d="M2138 788 c-2 -7 -4 -49 -4 -93 1 -64 4 -80 16 -80 12 0 15 17 15 89
0 57 -4 91 -11 93 -6 2 -13 -2 -16 -9z"/>
<path d="M2180 716 c0 -56 3 -76 13 -76 18 0 18 141 0 147 -10 4 -13 -15 -13
-71z"/>
<path d="M2237 773 c-3 -7 -2 -165 2 -185 0 -4 8 -5 16 -1 13 4 15 22 13 96
-2 57 -7 92 -15 94 -6 2 -13 0 -16 -4z"/>
</g>
</svg>
